Coordinates
version=1
nRows=33
nColumns=30
inDegrees=yes

Units are S.I. units (second, meters, Newtons, ...)
Angles are in degrees.

endheader
time	floatyaw	floatroll	floatpitch	floatx	floaty	floatz	pro_sup_l	deviation_l	flexion_l	cmc_flexion_l	cmc_abduction_l	mp_flexion_l	ip_flexion_l	2mcp_flexion_l	2mcp_abduction_l	2pm_flexion_l	2md_flexion_l	3mcp_flexion_l	3mcp_abduction_l	3pm_flexion_l	3md_flexion_l	4mcp_flexion_l	4mcp_abduction_l	4pm_flexion_l	4md_flexion_l	5mcp_flexion_l	5mcp_abduction_l	5pm_flexion_l	5md_flexion_l
-0.995000	-160.147433	-5.066637	-73.570646	0.080182	-0.181937	-0.017022	102.349159	3.862693	-0.984352	12.560072	9.907657	-26.099074	-41.320896	30.212224	6.909580	43.972771	30.049432	24.089661	4.227512	46.049277	30.598738	13.486069	-4.403378	52.874026	36.414346	2.452624	-7.956673	61.162789	42.365609
-0.985000	-160.147433	-5.066637	-73.570646	0.080188	-0.181921	-0.017018	102.350489	3.864385	-0.970858	12.536823	9.892877	-26.115022	-41.326419	30.225288	6.904008	43.961200	30.043798	24.081623	4.232456	46.039433	30.585727	13.486892	-4.402894	52.860298	36.404728	2.436938	-7.957049	61.181182	42.367759
-0.975000	-160.147433	-5.066637	-73.570646	0.080194	-0.181906	-0.017014	102.347745	3.865139	-0.955015	12.512950	9.892925	-26.132509	-41.325025	30.231025	6.897482	43.956346	30.044416	24.069158	4.237960	46.025293	30.573174	13.481392	-4.405217	52.853290	36.400028	2.417253	-7.957337	61.196194	42.369935
-0.965000	-160.147433	-5.066637	-73.570646	0.080197	-0.181894	-0.017012	102.340593	3.864283	-0.939517	12.490997	9.905422	-26.149853	-41.316640	30.229417	6.891368	43.957806	30.052419	24.054823	4.243004	46.009232	30.564895	13.470632	-4.410012	52.853135	36.401496	2.396093	-7.958529	61.208412	42.373694
-0.955000	-160.147433	-5.066637	-73.570646	0.080198	-0.181886	-0.017012	102.330513	3.861784	-0.927243	12.472697	9.926672	-26.165792	-41.305803	30.223443	6.887250	43.962750	30.065576	24.042677	4.246911	45.994451	30.562749	13.457947	-4.416175	52.858244	36.408422	2.378010	-7.961264	61.217487	42.378474
-0.945000	-160.147433	-5.066637	-73.570646	0.080195	-0.181882	-0.017013	102.319737	3.858105	-0.919899	12.458092	9.954808	-26.179299	-41.298380	30.216711	6.886359	43.969228	30.080747	24.036019	4.249775	45.984242	30.566543	13.447411	-4.422211	52.866636	36.418872	2.367529	-7.965204	61.221832	42.382008
-0.935000	-160.147433	-5.066637	-73.570646	0.080190	-0.181879	-0.017015	102.309874	3.853806	-0.917207	12.445456	9.990037	-26.189349	-41.297686	30.211571	6.889178	43.977384	30.095684	24.035970	4.252331	45.980739	30.574555	13.442075	-4.426810	52.876848	36.430638	2.366968	-7.968774	61.219292	42.381649
-0.925000	-160.147433	-5.066637	-73.570646	0.080183	-0.181875	-0.017016	102.301057	3.849179	-0.917184	12.432055	10.031962	-26.194848	-41.302354	30.208865	6.895365	43.987640	30.109002	24.041687	4.255319	45.983750	30.584229	13.442777	-4.429357	52.887990	36.441881	2.375391	-7.969736	61.208600	42.375897
-0.915000	-160.147433	-5.066637	-73.570646	0.080176	-0.181867	-0.017015	102.292183	3.844263	-0.917389	12.415362	10.076390	-26.194813	-41.307114	30.209014	6.903977	43.997681	30.118893	24.051642	4.258801	45.990569	30.592826	13.448072	-4.430102	52.899236	36.451304	2.389210	-7.966410	61.190734	42.365320
-0.905000	-160.147433	-5.066637	-73.570646	0.080172	-0.181858	-0.017012	102.281999	3.839219	-0.916363	12.394146	10.114557	-26.188826	-41.305951	30.213075	6.913803	44.001274	30.122210	24.064715	4.261910	45.997125	30.598054	13.455203	-4.429884	52.909446	36.458043	2.403910	-7.958741	61.169091	42.352323
-0.895000	-160.147433	-5.066637	-73.570646	0.080171	-0.181849	-0.017007	102.270152	3.834676	-0.914372	12.368997	10.135964	-26.177681	-41.295784	30.222667	6.923600	43.990673	30.115254	24.080261	4.263276	46.000011	30.598703	13.461477	-4.429610	52.917379	36.461599	2.415934	-7.948505	61.148051	42.339871
-0.885000	-160.147433	-5.066637	-73.570646	0.080173	-0.181845	-0.017001	102.257405	3.831599	-0.913006	12.342096	10.133462	-26.163892	-41.278583	30.238775	6.932183	43.961487	30.096066	24.097337	4.261862	45.998347	30.595118	13.465276	-4.429796	52.922396	36.461981	2.423946	-7.938520	61.130743	42.329894
-0.875000	-160.147433	-5.066637	-73.570646	0.080178	-0.181847	-0.016996	102.244969	3.830699	-0.913968	12.316381	10.107691	-26.151524	-41.260760	30.260478	6.938502	43.916715	30.066624	24.113962	4.257676	45.994464	30.589286	13.466297	-4.430433	52.925091	36.459912	2.429088	-7.931396	61.117500	42.322369
-0.865000	-160.147433	-5.066637	-73.570646	0.080184	-0.181855	-0.016992	102.233649	3.831869	-0.917895	12.294402	10.068028	-26.145011	-41.250168	30.284697	6.941892	43.866834	30.033136	24.127247	4.251959	45.992850	30.584237	13.465237	-4.431204	52.927298	36.456841	2.434231	-7.928594	61.106181	42.315674
-0.855000	-160.147433	-5.066637	-73.570646	0.080188	-0.181867	-0.016988	102.223605	3.834216	-0.923974	12.277345	10.029077	-26.147244	-41.252413	30.307277	6.942458	43.825399	30.003808	24.134581	4.246762	45.997643	30.582777	13.463363	-4.431885	52.931364	36.454579	2.442505	-7.930203	61.094192	42.307962
-0.845000	-160.147433	-5.066637	-73.570646	0.080191	-0.181878	-0.016986	102.214801	3.836667	-0.930496	12.264585	10.004399	-26.157949	-41.268433	30.324704	6.941297	43.802713	29.985295	24.135162	4.244105	46.009985	30.586062	13.462211	-4.432622	52.938996	36.454659	2.455662	-7.935314	61.080703	42.298602
-0.835000	-160.147433	-5.066637	-73.570646	0.080190	-0.181886	-0.016983	102.207404	3.838551	-0.935826	12.253922	10.001038	-26.173544	-41.294481	30.335422	6.940208	43.801370	29.979937	24.130726	4.245103	46.026951	30.592896	13.463243	-4.433860	52.950309	36.457711	2.473013	-7.942547	61.067402	42.288709
-0.825000	-160.147433	-5.066637	-73.570646	0.080186	-0.181889	-0.016980	102.201535	3.839600	-0.939064	12.242401	10.017800	-26.188838	-41.324248	30.340065	6.940864	43.816206	29.985383	24.124817	4.249476	46.042971	30.600363	13.467242	-4.435895	52.963558	36.463187	2.491522	-7.950420	61.057253	42.280428
-0.815000	-160.147433	-5.066637	-73.570646	0.080182	-0.181887	-0.016978	102.196637	3.839476	-0.940072	12.227454	10.047626	-26.199614	-41.351697	30.340611	6.943908	43.838282	29.996652	24.120935	4.255673	46.052971	30.605533	13.473688	-4.438362	52.975752	36.469575	2.507208	-7.957633	61.052344	42.275553
-0.805000	-160.147433	-5.066637	-73.570646	0.080178	-0.181883	-0.016976	102.191473	3.837559	-0.939123	12.208049	10.081890	-26.204469	-41.373048	30.339018	6.948649	43.860108	30.009178	24.120791	4.261585	46.055288	30.607209	13.480695	-4.440096	52.983903	36.474994	2.517243	-7.963370	61.052518	42.274456
-0.795000	-160.147433	-5.066637	-73.570646	0.080176	-0.181877	-0.016975	102.185203	3.833444	-0.936632	12.185410	10.113835	-26.204936	-41.387227	30.336135	6.953616	43.878838	30.020916	24.123696	4.265465	46.052497	30.606605	13.485795	-4.439636	52.986343	36.477937	2.521468	-7.967533	61.055740	42.276024
-0.785000	-160.147433	-5.066637	-73.570646	0.080177	-0.181872	-0.016976	102.178694	3.827770	-0.933153	12.162843	10.139727	-26.204219	-41.395221	30.331528	6.957538	43.895964	30.032424	24.127358	4.266597	46.049689	30.606506	13.487187	-4.436133	52.983430	36.477814	2.522204	-7.970607	61.059708	42.278550
-0.775000	-160.147433	-5.066637	-73.570646	0.080180	-0.181867	-0.016978	102.174589	3.822470	-0.929476	12.144487	10.158201	-26.205670	-41.399161	30.324296	6.959977	43.914501	30.045263	24.129466	4.265420	46.051336	30.609411	13.484678	-4.430042	52.977214	36.475045	2.522399	-7.973084	61.063355	42.280888
-0.765000	-160.147433	-5.066637	-73.570646	0.080183	-0.181863	-0.016979	102.175612	3.819951	-0.926504	12.133378	10.169232	-26.211802	-41.401589	30.314271	6.961231	43.935896	30.060007	24.129042	4.263072	46.058669	30.615825	13.479717	-4.423016	52.970215	36.470641	2.523404	-7.974882	61.067224	42.283126
-0.755000	-160.147433	-5.066637	-73.570646	0.080186	-0.181859	-0.016979	102.182204	3.821665	-0.924900	12.129742	10.173694	-26.223969	-41.404990	30.302790	6.961762	43.958503	30.075092	24.126836	4.260655	46.069115	30.623782	13.474577	-4.417076	52.964082	36.465601	2.524064	-7.975351	61.072626	42.286385
-0.745000	-160.147433	-5.066637	-73.570646	0.080188	-0.181856	-0.016977	102.191424	3.827115	-0.924754	12.130605	10.173440	-26.242431	-41.411634	30.292655	6.961697	43.978061	30.087057	24.124692	4.258667	46.078060	30.629936	13.471265	-4.413662	52.959030	36.460539	2.521782	-7.973923	61.080287	42.291878
-0.735000	-160.147433	-5.066637	-73.570646	0.080189	-0.181856	-0.016974	102.198235	3.834024	-0.925571	12.131158	10.171220	-26.266558	-41.423651	30.287402	6.960764	43.989557	30.091898	24.124418	4.256910	46.081749	30.631508	13.470792	-4.413189	52.954380	36.455758	2.514724	-7.970782	61.089354	42.299759
-0.725000	-160.147433	-5.066637	-73.570646	0.080189	-0.181858	-0.016971	102.198495	3.839595	-0.926557	12.127219	10.169892	-26.294899	-41.442792	30.290072	6.958653	43.989475	30.086853	24.126841	4.254878	46.079512	30.627863	13.473032	-4.415204	52.949644	36.451578	2.503472	-7.966874	61.097348	42.308502
-0.715000	-160.147433	-5.066637	-73.570646	0.080189	-0.181860	-0.016969	102.191656	3.842047	-0.926971	12.117196	10.171209	-26.325039	-41.469330	30.301704	6.955523	43.977564	30.071932	24.131469	4.252301	46.074002	30.620787	13.477010	-4.418794	52.945263	36.448530	2.490989	-7.963200	61.101142	42.315283
-0.705000	-160.147433	-5.066637	-73.570646	0.080189	-0.181861	-0.016968	102.181294	3.841498	-0.926283	12.102182	10.175143	-26.353462	-41.500438	30.320071	6.952278	43.957531	30.050577	24.136813	4.249432	46.069545	30.613434	13.481349	-4.422873	52.942508	36.447200	2.481083	-7.960050	61.098453	42.317283
-0.695000	-160.147433	-5.066637	-73.570646	0.080190	-0.181858	-0.016968	102.173089	3.839751	-0.924129	12.084194	10.180562	-26.375881	-41.529462	30.339637	6.950382	43.936169	30.028999	24.141108	4.246888	46.069742	30.608729	13.484679	-4.426316	52.942759	36.447905	2.476553	-7.956791	61.089015	42.313176
-0.685000	-160.147433	-5.066637	-73.570646	0.080191	-0.181851	-0.016969	102.171531	3.839160	-0.920182	12.064039	10.186942	-26.388286	-41.547433	30.353425	6.951270	43.920790	30.014074	24.143076	4.245215	46.075729	30.608150	13.485913	-4.428121	52.946812	36.450555	2.478148	-7.952302	61.074686	42.303894
-0.675000	-160.147433	-5.066637	-73.570646	0.080191	-0.181839	-0.016968	102.177285	3.841212	-0.914125	12.040589	10.195762	-26.388397	-41.546711	30.356330	6.955702	43.915869	30.010492	24.142435	4.244519	46.085891	30.611443	13.484430	-4.427721	52.954604	36.454769	2.484683	-7.945703	61.058494	42.292209
